<svg xmlns="http://www.w3.org/2000/svg" viewBox="0 0 100 100" width="77" height="77" preserveAspectRatio="xMidYMid meet" xmlns:c2pa="http://c2pa.org/manifest"><metadata><c2pa:manifest>AAAWgmp1bWIAAAAeanVtZGMycGEAEQAQgAAAqgA4m3EDYzJwYQAAABZcanVtYgAAAEdqdW1kYzJtYQARABCAAACqADibcQN1cm46YzJwYTowMGU3NWY5MC0xN2U5LTQyNzMtOTA3OS0yODU2NWRiYTMzOWIAAAADl2p1bWIAAAApanVtZGMyYXMAEQAQgAAAqgA4m3EDYzJwYS5hc3NlcnRpb25zAAAAALxqdW1iAAAARGp1bWRjYm9yABEAEIAAAKoAOJtxE2MycGEuaW5ncmVkaWVudC52MwAAAAAYYzJzaLfbmNQiSX2KDNj/LVDQ1koAAABwY2JvcqNpZGM6Zm9ybWF0bWltYWdlL3N2Zyt4bWxqaW5zdGFuY2VJRHgseG1wOmlpZDo0NjViODM0Mi1jMDI3LTQzNmEtODVmYi1hNzcwYTZkOWZiYzdscmVsYXRpb25zaGlwaHBhcmVudE9mAAAB4mp1bWIAAABBanVtZGNib3IAEQAQgAAAqgA4m3ETYzJwYS5hY3Rpb25zLnYyAAAAABhjMnNox2Ik6ZpS3GqDN2nxYQgk7AAAAZljYm9yomdhY3Rpb25zgqJmYWN0aW9ua2MycGEub3BlbmVkanBhcmFtZXRlcnOha2luZ3JlZGllbnRzgaJjdXJseC1zZWxmI2p1bWJmPWMycGEuYXNzZXJ0aW9ucy9jMnBhLmluZ3JlZGllbnQudjNkaGFzaFgg+l6D8JHlkgMBTMV5AtXqldy61OhL911RL07Tv+lmbtWkZmFjdGlvbngdY29tLmFudGhyb3BpYy5jbGF1ZGUucHJvdmlkZWRqcGFyYW1ldGVyc6F4H2NvbS5hbnRocm9waWMub3JpZ2luLWNvbmZpZGVuY2VndW5rbm93bmtkZXNjcmlwdGlvbnhmQ2xhdWRlIHByb3ZpZGVkIHRoaXMgZmlsZSBhdCB0aGUgcmVxdWVzdCBvZiBhIHVzZXIgYW5kIG1heSBoYXZlIGNyZWF0ZWQgb3IgbW9kaWZpZWQgdGhlIGZpbGUgY29udGVudHMubXNvZnR3YXJlQWdlbnShZG5hbWVmQ2xhdWRlcmFsbEFjdGlvbnNJbmNsdWRlZPUAAADIanVtYgAAAEBqdW1kY2JvcgARABCAAACqADibcRNjMnBhLmhhc2guZGF0YQAAAAAYYzJzaJU530PSlicwx8jNZw49BVYAAACAY2JvcqVjYWxnZnNoYTI1NmNwYWRNAAAAAAAAAAAAAAAAAGRoYXNoWCCB5bvea+qTYL47YIhnnvmAmMtgtde4xJyBYW0pOqhEImRuYW1lbmp1bWJmIG1hbmlmZXN0amV4Y2x1c2lvbnOBomVzdGFydBiWZmxlbmd0aBkeBAAAAj5qdW1iAAAAJ2p1bWRjMmNsABEAEIAAAKoAOJtxA2MycGEuY2xhaW0udjIAAAACD2Nib3KlY2FsZ2ZzaGEyNTZpc2lnbmF0dXJleE1zZWxmI2p1bWJmPS9jMnBhL3VybjpjMnBhOjAwZTc1ZjkwLTE3ZTktNDI3My05MDc5LTI4NTY1ZGJhMzM5Yi9jMnBhLnNpZ25hdHVyZWppbnN0YW5jZUlEeCx4bXA6aWlkOmMxNjA3MGRlLTg4NTctNGRjZi05MWIyLTc0YmJlYTI3MDVhN3JjcmVhdGVkX2Fzc2VydGlvbnODomN1cmx4LXNlbGYjanVtYmY9YzJwYS5hc3NlcnRpb25zL2MycGEuaW5ncmVkaWVudC52M2RoYXNoWCD6XoPwkeWSAwFMxXkC1eqV3LrU6Ev3XVEvTtO/6WZu1aJjdXJseCpzZWxmI2p1bWJmPWMycGEuYXNzZXJ0aW9ucy9jMnBhLmFjdGlvbnMudjJkaGFzaFggt0Wp1aFw2WcTiq5wKptsRwYm4/bekLLKfU7WkGy30sWiY3VybHgpc2VsZiNqdW1iZj1jMnBhLmFzc2VydGlvbnMvYzJwYS5oYXNoLmRhdGFkaGFzaFggutDADvTHJ8f7rcAM8uFhGrzNaB/lRh4YyvOl3NlqtyB0Y2xhaW1fZ2VuZXJhdG9yX2luZm+jZG5hbWVvQW50aHJvcGljIEZpbGVzZ3ZlcnNpb25lMS4wLjBrc3BlY1ZlcnNpb25lMi40LjAAABA4anVtYgAAAChqdW1kYzJjcwARABCAAACqADibcQNjMnBhLnNpZ25hdHVyZQAAABAIY2JvctKEWQISogEmGCFZAgowggIGMIIBjaADAgECAhRA5aAK7sI50L64g/oGQgU9Z1UTADAKBggqhkjOPQQDAzBJMRcwFQYDVQQKEw5BbnRocm9waWMsIFBCQzEuMCwGA1UEAxMlQW50aHJvcGljIENvbnRlbnQgQ3JlZGVudGlhbHMgUm9vdCBDQTAeFw0yNjA4MDcxODQzNTZaFw0yODA4MDYxOTQzNTZaMEQxFzAVBgNVBAoTDkFudGhyb3BpYywgUEJDMSkwJwYDVQQDEyBBbnRocm9waWMgQ2xhdWRlIENvbnRlbnQgU2lnbmluZzBZMBMGByqGSM49AgEGCCqGSM49AwEHA0IABJh6CmvLUBgFFNU0vUKlOVtE6djd17L5SuwX0LemFisBM3dkd/3cyjxFA3Qo5S46fX0/ihY0VZ7mfb9KF703t5OjWDBWMA4GA1UdDwEB/wQEAwIHgDAVBgNVHSUEDjAMBgorBgEEAYPoXgIBMAwGA1UdEwEB/wQCMAAwHwYDVR0jBBgwFoAUzlHiBIFOZFsj+OPEz5o+nMHXXMIwCgYIKoZIzj0EAwMDZwAwZAIwMXMdFJ4BetLLVY7ORuE9noqbbAZOZn/aArXyTwFAZfKrPzxF2vPoJNf1+UCdg1XGAjBwX1zd9WGqYkqmL5SFqw1QySjr1zJfpJM9+1rdDwSPLMOPOjKuiXjoU/pUUeG9RwmhY3BhZFkNngAAAAAAAAAAAAAAAAAAAAAAAAAAAAAAAAAAAAAAAAAAAAAAAAAAAAAAAAAAAAAAAAAAAAAAAAAAAAAAAAAAAAAAAAAAAAAAAAAAAAAAAAAAAAAAAAAAAAAAAAAAAAAAAAAAAAAAAAAAAAAAAAAAAAAAAAAAAAAAAAAAAAAAAAAAAAAAAAAAAAAAAAAAAAAAAAAAAAAAAAAAAAAAAAAAAAAAAAAAAAAAAAAAAAAAAAAAAAAAAAAAAAAAAAAAAAAAAAAAAAAAAAAAAAAAAAAAAAAAAAAAAAAAAAAAAAAAAAAAAAAAAAAAAAAAAAAAAAAAAAAAAAAAAAAAAAAAAAAAAAAAAAAAAAAAAAAAAAAAAAAAAAAAAAAAAAAAAAAAAAAAAAAAAAAAAAAAAAAAAAAAAAAAAAAAAAAAAAAAAAAAAAAAAAAAAAAAAAAAAAAAAAAAAAAAAAAAAAAAAAAAAAAAAAAAAAAAAAAAAAAAAAAAAAAAAAAAAAAAAAAAAAAAAAAAAAAAAAAAAAAAAAAAAAAAAAAAAAAAAAAAAAAAAAAAAAAAAAAAAAAAAAAAAAAAAAAAAAAAAAAAAAAAAAAAAAAAAAAAAAAAAAAAAAAAAAAAAAAAAAAAAAAAAAAAAAAAAAAAAAAAAAAAAAAAAAAAAAAAAAAAAAAAAAAAAAAAAAAAAAAAAAAAAAAAAAAAAAAAAAAAAAAAAAAAAAAAAAAAAAAAAAAAAAAAAAAAAAAAAAAAAAAAAAAAAAAAAAAAAAAAAAAAAAAAAAAAAAAAAAAAAAAAAAAAAAAAAAAAAAAAAAAAAAAAAAAAAAAAAAAAAAAAAAAAAAAAAAAAAAAAAAAAAAAAAAAAAAAAAAAAAAAAAAAAAAAAAAAAAAAAAAAAAAAAAAAAAAAAAAAAAAAAAAAAAAAAAAAAAAAAAAAAAAAAAAAAAAAAAAAAAAAAAAAAAAAAAAAAAAAAAAAAAAAAAAAAAAAAAAAAAAAAAAAAAAAAAAAAAAAAAAAAAAAAAAAAAAAAAAAAAAAAAAAAAAAAAAAAAAAAAAAAAAAAAAAAAAAAAAAAAAAAAAAAAAAAAAAAAAAAAAAAAAAAAAAAAAAAAAAAAAAAAAAAAAAAAAAAAAAAAAAAAAAAAAAAAAAAAAAAAAAAAAAAAAAAAAAAAAAAAAAAAAAAAAAAAAAAAAAAAAAAAAAAAAAAAAAAAAAAAAAAAAAAAAAAAAAAAAAAAAAAAAAAAAAAAAAAAAAAAAAAAAAAAAAAAAAAAAAAAAAAAAAAAAAAAAAAAAAAAAAAAAAAAAAAAAAAAAAAAAAAAAAAAAAAAAAAAAAAAAAAAAAAAAAAAAAAAAAAAAAAAAAAAAAAAAAAAAAAAAAAAAAAAAAAAAAAAAAAAAAAAAAAAAAAAAAAAAAAAAAAAAAAAAAAAAAAAAAAAAAAAAAAAAAAAAAAAAAAAAAAAAAAAAAAAAAAAAAAAAAAAAAAAAAAAAAAAAAAAAAAAAAAAAAAAAAAAAAAAAAAAAAAAAAAAAAAAAAAAAAAAAAAAAAAAAAAAAAAAAAAAAAAAAAAAAAAAAAAAAAAAAAAAAAAAAAAAAAAAAAAAAAAAAAAAAAAAAAAAAAAAAAAAAAAAAAAAAAAAAAAAAAAAAAAAAAAAAAAAAAAAAAAAAAAAAAAAAAAAAAAAAAAAAAAAAAAAAAAAAAAAAAAAAAAAAAAAAAAAAAAAAAAAAAAAAAAAAAAAAAAAAAAAAAAAAAAAAAAAAAAAAAAAAAAAAAAAAAAAAAAAAAAAAAAAAAAAAAAAAAAAAAAAAAAAAAAAAAAAAAAAAAAAAAAAAAAAAAAAAAAAAAAAAAAAAAAAAAAAAAAAAAAAAAAAAAAAAAAAAAAAAAAAAAAAAAAAAAAAAAAAAAAAAAAAAAAAAAAAAAAAAAAAAAAAAAAAAAAAAAAAAAAAAAAAAAAAAAAAAAAAAAAAAAAAAAAAAAAAAAAAAAAAAAAAAAAAAAAAAAAAAAAAAAAAAAAAAAAAAAAAAAAAAAAAAAAAAAAAAAAAAAAAAAAAAAAAAAAAAAAAAAAAAAAAAAAAAAAAAAAAAAAAAAAAAAAAAAAAAAAAAAAAAAAAAAAAAAAAAAAAAAAAAAAAAAAAAAAAAAAAAAAAAAAAAAAAAAAAAAAAAAAAAAAAAAAAAAAAAAAAAAAAAAAAAAAAAAAAAAAAAAAAAAAAAAAAAAAAAAAAAAAAAAAAAAAAAAAAAAAAAAAAAAAAAAAAAAAAAAAAAAAAAAAAAAAAAAAAAAAAAAAAAAAAAAAAAAAAAAAAAAAAAAAAAAAAAAAAAAAAAAAAAAAAAAAAAAAAAAAAAAAAAAAAAAAAAAAAAAAAAAAAAAAAAAAAAAAAAAAAAAAAAAAAAAAAAAAAAAAAAAAAAAAAAAAAAAAAAAAAAAAAAAAAAAAAAAAAAAAAAAAAAAAAAAAAAAAAAAAAAAAAAAAAAAAAAAAAAAAAAAAAAAAAAAAAAAAAAAAAAAAAAAAAAAAAAAAAAAAAAAAAAAAAAAAAAAAAAAAAAAAAAAAAAAAAAAAAAAAAAAAAAAAAAAAAAAAAAAAAAAAAAAAAAAAAAAAAAAAAAAAAAAAAAAAAAAAAAAAAAAAAAAAAAAAAAAAAAAAAAAAAAAAAAAAAAAAAAAAAAAAAAAAAAAAAAAAAAAAAAAAAAAAAAAAAAAAAAAAAAAAAAAAAAAAAAAAAAAAAAAAAAAAAAAAAAAAAAAAAAAAAAAAAAAAAAAAAAAAAAAAAAAAAAAAAAAAAAAAAAAAAAAAAAAAAAAAAAAAAAAAAAAAAAAAAAAAAAAAAAAAAAAAAAAAAAAAAAAAAAAAAAAAAAAAAAAAAAAAAAAAAAAAAAAAAAAAAAAAAAAAAAAAAAAAAAAAAAAAAAAAAAAAAAAAAAAAAAAAAAAAAAAAAAAAAAAAAAAAAAAAAAAAAAAAAAAAAAAAAAAAAAAAAAAAAAAAAAAAAAAAAAAAAAAAAAAAAAAAAAAAAAAAAAAAAAAAAAAAAAAAAAAAAAAAAAAAAAAAAAAAAAAAAAAAAAAAAAAAAAAAAAAAAAAAAAAAAAAAAAAAAAAAAAAAAAAAAAAAAAAAAAAAAAAAAAAAAAAAAAAAAAAAAAAAAAAAAAAAAAAAAAAAAAAAAAAAAAAAAAAAAAAAAAAAAAAAAAAAAAAAAAAAAAAAAAAAAAAAAAAAAAAAAAAAAAAAAAAAAAAAAAAAAAAAAAAAAAAAAAAAAAAAAAAAAAAAAAAAAAAAAAAAAAAAAAAAAAAAAAAAAAAAAAAAAAAAAAAAAAAAAAAAAAAAAAAAAAAAAAAAAAAAAAAAAAAAAAAAAAAAAAAAAAAAAAAAAAAAAAAAAAAAAAAAAAAAAAAAAAAAAAAAAAAAAAAAAAAAAAAAAAAAAAAAAAAAAAAAAAAAAAAAAAAAAAAAAAAAAAAAAAAAAAAAAAAAAAAAAAAAAAAAAAAAAAAAAAAAAAAAAAAAAAAAAAAAAAAAAAAAAAAAAAAAAAAAAAAAAAAAAAAAAAAAAAAAAAAAAAAAAAAAAAAAAAAAAAAAAAAAAAAAAAAAAAAAAAAAAAAAAAAAAAAAAAAAAAAAAAAAAAAAAAAAAAAAAAAAAAAAAAAAAAAAAAAAAAAAAAAAAAAAAAAAAAAAAAAAAAAAAAAAAAAAAAAAAAAAAAAAAAAAAAAAAAAAAAAAAAAAAAAAAAAAAAAAAAAAAAAAAAAAAAAAAAAAAAAAAAAAAAAAAAAAAAAAAAAAAAAAAAAAAAAAAAAAAAAAAAAAAAAAAAAAAAAAAAAAAAAAAAAAAAAAAAAAAAAAAAAAAAAAAAAAAAAAAAAAAAAAAAAAAAAAAAAAAAAAAAAAAAAAAAAAAAAAAAAAAAAAAAAAAAAAAAAAAAAAAAAAAAAAAAAAAAAAAAAAAAAAAAAAAAAAAAAAAAAAAAAAAAAAAAAAAAAAAAAAAAAAAAAAAAAAAAAAAAAAAAAAAAAAAAAAAAAAAAAAAAAAAAAAAAAAAAAAAAAAAAAAAAAAAAAAAAAAAAAAAAAAAAAAAAAAAAAAAAAAAAAAAAAAAAAAAAAAAAAAAAAAAAAAAAAAAAAAAAAAAAAAAAAAAAAAAAAAAAAAAAAAAAAAAAAAAAAAAAAAAAAAAAAAAAAAAAAAAAAAAAAAAAAAAAAAAAAAAAAAAAAAAAAAAAAAAAAAAAAAAAAAAAAAAAAAAAAAAAAAAAAAAAAAAAAAAAAAAAAAAAAAAAAAAAAAAAAAAAAAAAAAAAAAAAAAAAAAAAAAAAAAAAAAAAAAAAAAAAAAAAAAAAAAAAAAAAAAAAAAAAAAAAAAAAAAAAAAAAAAAAAAAAAAAAAAAAAAAAAAAAAAAAAAAAAAAAAAAAAAAAAAAAAAAAAAAAAAAAAAAAAAAAAAAAAAAAAAAAAAAAAAAAAAAAAAAAAAAAAAAAAAAAAAAAAAAAAAAAAAAAAAAAAAAAAAAAAAAAAAAAAAAAAAAAAAAAAAAAAAAAAAAAAAAAAAAAAAAAAAAAAAAAAAAAAAAAAAAAAAAAAAAAAAAAAAAAAAAAAAAAAAAAAAAAAAAAAAAAAAAAAAAAAAAAAAAAAAAAAAAAAAAAAAAAAAAAAAAAAAAAAAAAAAAAAAAAAAAAAAAAAAAAAAAAAAAAAAAAAAAPZYQNOOyDq1lCa7DG6Y4MsW3KwMCJn8tqgzE9I6GPGPxFB3rklQVcoHQ3Mc+udppiX9wiJtMexq0aavFaCSgGK4JTA=</c2pa:manifest></metadata>
  <defs>
    <filter id="neonGlow" x="-100%" y="-100%" width="300%" height="300%">
      <feGaussianBlur in="SourceGraphic" stdDeviation="1.2" result="blur1"/>
      <feGaussianBlur in="SourceGraphic" stdDeviation="3" result="blur2"/>
      <feMerge>
        <feMergeNode in="blur2"/>
        <feMergeNode in="blur1"/>
        <feMergeNode in="SourceGraphic"/>
      </feMerge>
    </filter>
    <filter id="dotGlow" x="-300%" y="-300%" width="700%" height="700%">
      <feGaussianBlur in="SourceGraphic" stdDeviation="1" result="blur1"/>
      <feGaussianBlur in="SourceGraphic" stdDeviation="2.2" result="blur2"/>
      <feMerge>
        <feMergeNode in="blur2"/>
        <feMergeNode in="blur1"/>
        <feMergeNode in="SourceGraphic"/>
      </feMerge>
    </filter>
  </defs>

  <!-- Fondo -->
  <!-- Fondo transparente: el contador se integra con la tarjeta -->

  <!-- Aro base negro -->
  <circle cx="50" cy="50" r="35" fill="none" stroke="#20E6FF" stroke-width="4"/>

  <!-- Cola degradada magenta (imita el conic-gradient) + punta brillante, giran juntas -->
  <g>
    <animateTransform
      attributeName="transform"
      type="rotate"
      from="0 50 50"
      to="360 50 50"
      dur="1.1s"
      repeatCount="indefinite"/>

    <g filter="url(#neonGlow)">
      <animate attributeName="opacity" values="0.85;1;0.85" dur="1.6s" repeatCount="indefinite"/>
      <path d="M 39.184 83.287 A 35 35 0 0 1 37.628 82.741" fill="none" stroke="#ff00ff" stroke-width="4" stroke-opacity="0.017"/>
      <path d="M 37.628 82.741 A 35 35 0 0 1 36.100 82.121" fill="none" stroke="#ff00ff" stroke-width="4" stroke-opacity="0.033"/>
      <path d="M 36.100 82.121 A 35 35 0 0 1 34.602 81.431" fill="none" stroke="#ff00ff" stroke-width="4" stroke-opacity="0.050"/>
      <path d="M 34.602 81.431 A 35 35 0 0 1 33.139 80.671" fill="none" stroke="#ff00ff" stroke-width="4" stroke-opacity="0.067"/>
      <path d="M 33.139 80.671 A 35 35 0 0 1 31.713 79.842" fill="none" stroke="#ff00ff" stroke-width="4" stroke-opacity="0.083"/>
      <path d="M 31.713 79.842 A 35 35 0 0 1 30.327 78.948" fill="none" stroke="#ff00ff" stroke-width="4" stroke-opacity="0.100"/>
      <path d="M 30.327 78.948 A 35 35 0 0 1 28.985 77.989" fill="none" stroke="#ff00ff" stroke-width="4" stroke-opacity="0.117"/>
      <path d="M 28.985 77.989 A 35 35 0 0 1 27.690 76.968" fill="none" stroke="#ff00ff" stroke-width="4" stroke-opacity="0.133"/>
      <path d="M 27.690 76.968 A 35 35 0 0 1 26.445 75.887" fill="none" stroke="#ff00ff" stroke-width="4" stroke-opacity="0.150"/>
      <path d="M 26.445 75.887 A 35 35 0 0 1 25.251 74.749" fill="none" stroke="#ff00ff" stroke-width="4" stroke-opacity="0.167"/>
      <path d="M 25.251 74.749 A 35 35 0 0 1 24.113 73.555" fill="none" stroke="#ff00ff" stroke-width="4" stroke-opacity="0.183"/>
      <path d="M 24.113 73.555 A 35 35 0 0 1 23.032 72.310" fill="none" stroke="#ff00ff" stroke-width="4" stroke-opacity="0.200"/>
      <path d="M 23.032 72.310 A 35 35 0 0 1 22.011 71.015" fill="none" stroke="#ff00ff" stroke-width="4" stroke-opacity="0.217"/>
      <path d="M 22.011 71.015 A 35 35 0 0 1 21.052 69.673" fill="none" stroke="#ff00ff" stroke-width="4" stroke-opacity="0.233"/>
      <path d="M 21.052 69.673 A 35 35 0 0 1 20.158 68.287" fill="none" stroke="#ff00ff" stroke-width="4" stroke-opacity="0.250"/>
      <path d="M 20.158 68.287 A 35 35 0 0 1 19.329 66.861" fill="none" stroke="#ff00ff" stroke-width="4" stroke-opacity="0.267"/>
      <path d="M 19.329 66.861 A 35 35 0 0 1 18.569 65.398" fill="none" stroke="#ff00ff" stroke-width="4" stroke-opacity="0.283"/>
      <path d="M 18.569 65.398 A 35 35 0 0 1 17.879 63.900" fill="none" stroke="#ff00ff" stroke-width="4" stroke-opacity="0.300"/>
      <path d="M 17.879 63.900 A 35 35 0 0 1 17.259 62.372" fill="none" stroke="#ff00ff" stroke-width="4" stroke-opacity="0.317"/>
      <path d="M 17.259 62.372 A 35 35 0 0 1 16.713 60.816" fill="none" stroke="#ff00ff" stroke-width="4" stroke-opacity="0.333"/>
      <path d="M 16.713 60.816 A 35 35 0 0 1 16.240 59.236" fill="none" stroke="#ff00ff" stroke-width="4" stroke-opacity="0.350"/>
      <path d="M 16.240 59.236 A 35 35 0 0 1 15.843 57.635" fill="none" stroke="#ff00ff" stroke-width="4" stroke-opacity="0.367"/>
      <path d="M 15.843 57.635 A 35 35 0 0 1 15.521 56.018" fill="none" stroke="#ff00ff" stroke-width="4" stroke-opacity="0.383"/>
      <path d="M 15.521 56.018 A 35 35 0 0 1 15.276 54.387" fill="none" stroke="#ff00ff" stroke-width="4" stroke-opacity="0.400"/>
      <path d="M 15.276 54.387 A 35 35 0 0 1 15.108 52.746" fill="none" stroke="#ff00ff" stroke-width="4" stroke-opacity="0.417"/>
      <path d="M 15.108 52.746 A 35 35 0 0 1 15.017 51.099" fill="none" stroke="#ff00ff" stroke-width="4" stroke-opacity="0.433"/>
      <path d="M 15.017 51.099 A 35 35 0 0 1 15.004 49.450" fill="none" stroke="#ff00ff" stroke-width="4" stroke-opacity="0.450"/>
      <path d="M 15.004 49.450 A 35 35 0 0 1 15.069 47.802" fill="none" stroke="#ff00ff" stroke-width="4" stroke-opacity="0.467"/>
      <path d="M 15.069 47.802 A 35 35 0 0 1 15.211 46.159" fill="none" stroke="#ff00ff" stroke-width="4" stroke-opacity="0.483"/>
      <path d="M 15.211 46.159 A 35 35 0 0 1 15.431 44.525" fill="none" stroke="#ff00ff" stroke-width="4" stroke-opacity="0.500"/>
      <path d="M 15.431 44.525 A 35 35 0 0 1 15.727 42.902" fill="none" stroke="#ff00ff" stroke-width="4" stroke-opacity="0.517"/>
      <path d="M 15.727 42.902 A 35 35 0 0 1 16.100 41.296" fill="none" stroke="#ff00ff" stroke-width="4" stroke-opacity="0.533"/>
      <path d="M 16.100 41.296 A 35 35 0 0 1 16.547 39.709" fill="none" stroke="#ff00ff" stroke-width="4" stroke-opacity="0.550"/>
      <path d="M 16.547 39.709 A 35 35 0 0 1 17.069 38.144" fill="none" stroke="#ff00ff" stroke-width="4" stroke-opacity="0.567"/>
      <path d="M 17.069 38.144 A 35 35 0 0 1 17.664 36.606" fill="none" stroke="#ff00ff" stroke-width="4" stroke-opacity="0.583"/>
      <path d="M 17.664 36.606 A 35 35 0 0 1 18.331 35.098" fill="none" stroke="#ff00ff" stroke-width="4" stroke-opacity="0.600"/>
      <path d="M 18.331 35.098 A 35 35 0 0 1 19.068 33.622" fill="none" stroke="#ff00ff" stroke-width="4" stroke-opacity="0.617"/>
      <path d="M 19.068 33.622 A 35 35 0 0 1 19.874 32.184" fill="none" stroke="#ff00ff" stroke-width="4" stroke-opacity="0.633"/>
      <path d="M 19.874 32.184 A 35 35 0 0 1 20.747 30.784" fill="none" stroke="#ff00ff" stroke-width="4" stroke-opacity="0.650"/>
      <path d="M 20.747 30.784 A 35 35 0 0 1 21.684 29.428" fill="none" stroke="#ff00ff" stroke-width="4" stroke-opacity="0.667"/>
      <path d="M 21.684 29.428 A 35 35 0 0 1 22.685 28.117" fill="none" stroke="#ff00ff" stroke-width="4" stroke-opacity="0.683"/>
      <path d="M 22.685 28.117 A 35 35 0 0 1 23.746 26.854" fill="none" stroke="#ff00ff" stroke-width="4" stroke-opacity="0.700"/>
      <path d="M 23.746 26.854 A 35 35 0 0 1 24.866 25.643" fill="none" stroke="#ff00ff" stroke-width="4" stroke-opacity="0.717"/>
      <path d="M 24.866 25.643 A 35 35 0 0 1 26.041 24.486" fill="none" stroke="#ff00ff" stroke-width="4" stroke-opacity="0.733"/>
      <path d="M 26.041 24.486 A 35 35 0 0 1 27.269 23.386" fill="none" stroke="#ff00ff" stroke-width="4" stroke-opacity="0.750"/>
      <path d="M 27.269 23.386 A 35 35 0 0 1 28.548 22.345" fill="none" stroke="#ff00ff" stroke-width="4" stroke-opacity="0.767"/>
      <path d="M 28.548 22.345 A 35 35 0 0 1 29.875 21.365" fill="none" stroke="#ff00ff" stroke-width="4" stroke-opacity="0.783"/>
      <path d="M 29.875 21.365 A 35 35 0 0 1 31.246 20.449" fill="none" stroke="#ff00ff" stroke-width="4" stroke-opacity="0.800"/>
      <path d="M 31.246 20.449 A 35 35 0 0 1 32.659 19.598" fill="none" stroke="#ff00ff" stroke-width="4" stroke-opacity="0.817"/>
      <path d="M 32.659 19.598 A 35 35 0 0 1 34.110 18.815" fill="none" stroke="#ff00ff" stroke-width="4" stroke-opacity="0.833"/>
      <path d="M 34.110 18.815 A 35 35 0 0 1 35.597 18.101" fill="none" stroke="#ff00ff" stroke-width="4" stroke-opacity="0.850"/>
      <path d="M 35.597 18.101 A 35 35 0 0 1 37.116 17.458" fill="none" stroke="#ff00ff" stroke-width="4" stroke-opacity="0.867"/>
      <path d="M 37.116 17.458 A 35 35 0 0 1 38.663 16.887" fill="none" stroke="#ff00ff" stroke-width="4" stroke-opacity="0.883"/>
      <path d="M 38.663 16.887 A 35 35 0 0 1 40.235 16.390" fill="none" stroke="#ff00ff" stroke-width="4" stroke-opacity="0.900"/>
      <path d="M 40.235 16.390 A 35 35 0 0 1 41.829 15.967" fill="none" stroke="#ff00ff" stroke-width="4" stroke-opacity="0.917"/>
      <path d="M 41.829 15.967 A 35 35 0 0 1 43.442 15.620" fill="none" stroke="#ff00ff" stroke-width="4" stroke-opacity="0.933"/>
      <path d="M 43.442 15.620 A 35 35 0 0 1 45.068 15.349" fill="none" stroke="#ff00ff" stroke-width="4" stroke-opacity="0.950"/>
      <path d="M 45.068 15.349 A 35 35 0 0 1 46.706 15.155" fill="none" stroke="#ff00ff" stroke-width="4" stroke-opacity="0.967"/>
      <path d="M 46.706 15.155 A 35 35 0 0 1 48.351 15.039" fill="none" stroke="#ff00ff" stroke-width="4" stroke-opacity="0.983"/>
      <path d="M 48.351 15.039 A 35 35 0 0 1 50.000 15.000" fill="none" stroke="#ff00ff" stroke-width="4" stroke-opacity="1.000"/>
    </g>

    <circle cx="50.000" cy="15.000" r="2" fill="#ffffff" filter="url(#dotGlow)"/>
  </g>
</svg>